<mxfile host="Electron" agent="Mozilla/5.0 (Windows NT 10.0; Win64; x64) AppleWebKit/537.36 (KHTML, like Gecko) draw.io/28.1.2 Chrome/138.0.7204.243 Electron/37.4.0 Safari/537.36" version="28.1.2">
  <diagram name="ページ1" id="5thOnkNFSWNpwLKdtEbN">
    <mxGraphModel dx="1429" dy="938" grid="1" gridSize="10" guides="1" tooltips="1" connect="1" arrows="1" fold="1" page="1" pageScale="1" pageWidth="1600" pageHeight="1200" math="0" shadow="0">
      <root>
        <mxCell id="0" />
        <mxCell id="1" parent="0" />
        <mxCell id="1aU4UUseu54FOc3RbMY6-1" value="図書カード" style="rounded=0;whiteSpace=wrap;html=1;" vertex="1" parent="1">
          <mxGeometry x="560" y="230" width="100" height="50" as="geometry" />
        </mxCell>
        <mxCell id="1aU4UUseu54FOc3RbMY6-2" value="氏名" style="rounded=0;whiteSpace=wrap;html=1;" vertex="1" parent="1">
          <mxGeometry x="290" y="400" width="100" height="50" as="geometry" />
        </mxCell>
        <mxCell id="1aU4UUseu54FOc3RbMY6-3" value="利用者" style="rounded=0;whiteSpace=wrap;html=1;" vertex="1" parent="1">
          <mxGeometry x="740" y="80" width="100" height="50" as="geometry" />
        </mxCell>
        <mxCell id="1aU4UUseu54FOc3RbMY6-4" value="パスワード" style="rounded=0;whiteSpace=wrap;html=1;" vertex="1" parent="1">
          <mxGeometry x="840" y="400" width="100" height="50" as="geometry" />
        </mxCell>
        <mxCell id="1aU4UUseu54FOc3RbMY6-5" value="IDナンバー" style="rounded=0;whiteSpace=wrap;html=1;" vertex="1" parent="1">
          <mxGeometry x="730" y="400" width="100" height="50" as="geometry" />
        </mxCell>
        <mxCell id="1aU4UUseu54FOc3RbMY6-6" value="電子メール&lt;br&gt;アドレス" style="rounded=0;whiteSpace=wrap;html=1;" vertex="1" parent="1">
          <mxGeometry x="620" y="400" width="100" height="50" as="geometry" />
        </mxCell>
        <mxCell id="1aU4UUseu54FOc3RbMY6-7" value="電話番号" style="rounded=0;whiteSpace=wrap;html=1;" vertex="1" parent="1">
          <mxGeometry x="510" y="400" width="100" height="50" as="geometry" />
        </mxCell>
        <mxCell id="1aU4UUseu54FOc3RbMY6-8" value="住所" style="rounded=0;whiteSpace=wrap;html=1;" vertex="1" parent="1">
          <mxGeometry x="400" y="400" width="100" height="50" as="geometry" />
        </mxCell>
        <mxCell id="1aU4UUseu54FOc3RbMY6-9" value="" style="endArrow=diamondThin;html=1;rounded=0;entryX=0;entryY=0.5;entryDx=0;entryDy=0;exitX=0.5;exitY=0;exitDx=0;exitDy=0;endSize=20;endFill=0;" edge="1" parent="1" source="1aU4UUseu54FOc3RbMY6-2" target="1aU4UUseu54FOc3RbMY6-1">
          <mxGeometry width="50" height="50" relative="1" as="geometry">
            <mxPoint x="550" y="380" as="sourcePoint" />
            <mxPoint x="600" y="330" as="targetPoint" />
          </mxGeometry>
        </mxCell>
        <mxCell id="1aU4UUseu54FOc3RbMY6-10" value="" style="endArrow=diamondThin;html=1;rounded=0;entryX=0;entryY=1;entryDx=0;entryDy=0;exitX=0.5;exitY=0;exitDx=0;exitDy=0;endSize=20;endFill=0;" edge="1" parent="1" source="1aU4UUseu54FOc3RbMY6-8" target="1aU4UUseu54FOc3RbMY6-1">
          <mxGeometry width="50" height="50" relative="1" as="geometry">
            <mxPoint x="530" y="410" as="sourcePoint" />
            <mxPoint x="760" y="340" as="targetPoint" />
          </mxGeometry>
        </mxCell>
        <mxCell id="1aU4UUseu54FOc3RbMY6-11" value="" style="endArrow=diamondThin;html=1;rounded=0;entryX=0.25;entryY=1;entryDx=0;entryDy=0;exitX=0.5;exitY=0;exitDx=0;exitDy=0;endSize=20;endFill=0;" edge="1" parent="1" source="1aU4UUseu54FOc3RbMY6-7" target="1aU4UUseu54FOc3RbMY6-1">
          <mxGeometry width="50" height="50" relative="1" as="geometry">
            <mxPoint x="640" y="440" as="sourcePoint" />
            <mxPoint x="870" y="370" as="targetPoint" />
          </mxGeometry>
        </mxCell>
        <mxCell id="1aU4UUseu54FOc3RbMY6-12" value="" style="endArrow=diamondThin;html=1;rounded=0;entryX=0.75;entryY=1;entryDx=0;entryDy=0;exitX=0.5;exitY=0;exitDx=0;exitDy=0;endSize=20;endFill=0;" edge="1" parent="1" source="1aU4UUseu54FOc3RbMY6-6" target="1aU4UUseu54FOc3RbMY6-1">
          <mxGeometry width="50" height="50" relative="1" as="geometry">
            <mxPoint x="740" y="430" as="sourcePoint" />
            <mxPoint x="970" y="360" as="targetPoint" />
          </mxGeometry>
        </mxCell>
        <mxCell id="1aU4UUseu54FOc3RbMY6-13" value="" style="endArrow=diamondThin;html=1;rounded=0;entryX=1;entryY=1;entryDx=0;entryDy=0;exitX=0.5;exitY=0;exitDx=0;exitDy=0;endSize=20;endFill=0;" edge="1" parent="1" source="1aU4UUseu54FOc3RbMY6-5" target="1aU4UUseu54FOc3RbMY6-1">
          <mxGeometry width="50" height="50" relative="1" as="geometry">
            <mxPoint x="770" y="410" as="sourcePoint" />
            <mxPoint x="1000" y="340" as="targetPoint" />
          </mxGeometry>
        </mxCell>
        <mxCell id="1aU4UUseu54FOc3RbMY6-14" value="" style="endArrow=diamondThin;html=1;rounded=0;entryX=1;entryY=0.5;entryDx=0;entryDy=0;exitX=0.5;exitY=0;exitDx=0;exitDy=0;endSize=20;endFill=0;" edge="1" parent="1" source="1aU4UUseu54FOc3RbMY6-4" target="1aU4UUseu54FOc3RbMY6-1">
          <mxGeometry width="50" height="50" relative="1" as="geometry">
            <mxPoint x="830" y="420" as="sourcePoint" />
            <mxPoint x="1060" y="350" as="targetPoint" />
          </mxGeometry>
        </mxCell>
        <mxCell id="1aU4UUseu54FOc3RbMY6-18" value="貸し出し予約" style="rounded=0;whiteSpace=wrap;html=1;" vertex="1" parent="1">
          <mxGeometry x="400" y="80" width="100" height="50" as="geometry" />
        </mxCell>
        <mxCell id="1aU4UUseu54FOc3RbMY6-19" value="借りている本" style="rounded=0;whiteSpace=wrap;html=1;" vertex="1" parent="1">
          <mxGeometry x="1090" y="260" width="100" height="50" as="geometry" />
        </mxCell>
        <mxCell id="1aU4UUseu54FOc3RbMY6-25" value="" style="endArrow=none;html=1;rounded=0;entryX=0;entryY=0.5;entryDx=0;entryDy=0;exitX=1;exitY=0.5;exitDx=0;exitDy=0;endSize=20;endFill=0;" edge="1" parent="1" source="1aU4UUseu54FOc3RbMY6-18" target="1aU4UUseu54FOc3RbMY6-3">
          <mxGeometry width="50" height="50" relative="1" as="geometry">
            <mxPoint x="660" y="500" as="sourcePoint" />
            <mxPoint x="300" y="90" as="targetPoint" />
          </mxGeometry>
        </mxCell>
        <mxCell id="1aU4UUseu54FOc3RbMY6-50" value="連絡を受ける" style="edgeLabel;html=1;align=center;verticalAlign=middle;resizable=0;points=[];" vertex="1" connectable="0" parent="1aU4UUseu54FOc3RbMY6-25">
          <mxGeometry x="0.0778" y="-1" relative="1" as="geometry">
            <mxPoint as="offset" />
          </mxGeometry>
        </mxCell>
        <mxCell id="1aU4UUseu54FOc3RbMY6-27" value="期限" style="rounded=0;whiteSpace=wrap;html=1;" vertex="1" parent="1">
          <mxGeometry x="1090" y="400" width="100" height="50" as="geometry" />
        </mxCell>
        <mxCell id="1aU4UUseu54FOc3RbMY6-31" value="" style="endArrow=diamondThin;html=1;rounded=0;exitX=0.5;exitY=0;exitDx=0;exitDy=0;endSize=20;endFill=0;entryX=0.5;entryY=1;entryDx=0;entryDy=0;" edge="1" parent="1" source="1aU4UUseu54FOc3RbMY6-27" target="1aU4UUseu54FOc3RbMY6-19">
          <mxGeometry width="50" height="50" relative="1" as="geometry">
            <mxPoint x="1195" y="360" as="sourcePoint" />
            <mxPoint x="1240" y="330" as="targetPoint" />
          </mxGeometry>
        </mxCell>
        <mxCell id="1aU4UUseu54FOc3RbMY6-33" value="" style="endArrow=diamondThin;html=1;rounded=0;entryX=0.25;entryY=1;entryDx=0;entryDy=0;exitX=0.5;exitY=0;exitDx=0;exitDy=0;endSize=20;endFill=0;" edge="1" parent="1" source="1aU4UUseu54FOc3RbMY6-1" target="1aU4UUseu54FOc3RbMY6-3">
          <mxGeometry width="50" height="50" relative="1" as="geometry">
            <mxPoint x="760" y="445" as="sourcePoint" />
            <mxPoint x="530" y="300" as="targetPoint" />
          </mxGeometry>
        </mxCell>
        <mxCell id="1aU4UUseu54FOc3RbMY6-34" value="図書" style="rounded=0;whiteSpace=wrap;html=1;" vertex="1" parent="1">
          <mxGeometry x="1055" y="80" width="100" height="50" as="geometry" />
        </mxCell>
        <mxCell id="1aU4UUseu54FOc3RbMY6-35" value="書名" style="rounded=0;whiteSpace=wrap;html=1;" vertex="1" parent="1">
          <mxGeometry x="880" y="190" width="100" height="50" as="geometry" />
        </mxCell>
        <mxCell id="1aU4UUseu54FOc3RbMY6-37" value="著者名" style="rounded=0;whiteSpace=wrap;html=1;" vertex="1" parent="1">
          <mxGeometry x="990" y="190" width="100" height="50" as="geometry" />
        </mxCell>
        <mxCell id="1aU4UUseu54FOc3RbMY6-38" value="" style="endArrow=none;html=1;rounded=0;entryX=0;entryY=0.5;entryDx=0;entryDy=0;exitX=1;exitY=0.5;exitDx=0;exitDy=0;" edge="1" parent="1" source="1aU4UUseu54FOc3RbMY6-3" target="1aU4UUseu54FOc3RbMY6-34">
          <mxGeometry width="50" height="50" relative="1" as="geometry">
            <mxPoint x="1010" y="220" as="sourcePoint" />
            <mxPoint x="1060" y="170" as="targetPoint" />
          </mxGeometry>
        </mxCell>
        <mxCell id="1aU4UUseu54FOc3RbMY6-39" value="検索" style="edgeLabel;html=1;align=center;verticalAlign=middle;resizable=0;points=[];" vertex="1" connectable="0" parent="1aU4UUseu54FOc3RbMY6-38">
          <mxGeometry x="0.2138" y="-2" relative="1" as="geometry">
            <mxPoint as="offset" />
          </mxGeometry>
        </mxCell>
        <mxCell id="1aU4UUseu54FOc3RbMY6-40" value="" style="endArrow=diamondThin;html=1;rounded=0;entryX=0.25;entryY=1;entryDx=0;entryDy=0;exitX=0.5;exitY=0;exitDx=0;exitDy=0;endSize=20;endFill=0;" edge="1" parent="1" source="1aU4UUseu54FOc3RbMY6-37" target="1aU4UUseu54FOc3RbMY6-34">
          <mxGeometry width="50" height="50" relative="1" as="geometry">
            <mxPoint x="1040" y="380" as="sourcePoint" />
            <mxPoint x="785" y="170" as="targetPoint" />
          </mxGeometry>
        </mxCell>
        <mxCell id="1aU4UUseu54FOc3RbMY6-41" value="" style="endArrow=diamondThin;html=1;rounded=0;entryX=0;entryY=1;entryDx=0;entryDy=0;exitX=0.5;exitY=0;exitDx=0;exitDy=0;endSize=20;endFill=0;" edge="1" parent="1" source="1aU4UUseu54FOc3RbMY6-35" target="1aU4UUseu54FOc3RbMY6-34">
          <mxGeometry width="50" height="50" relative="1" as="geometry">
            <mxPoint x="1040" y="380" as="sourcePoint" />
            <mxPoint x="785" y="170" as="targetPoint" />
          </mxGeometry>
        </mxCell>
        <mxCell id="1aU4UUseu54FOc3RbMY6-42" value="必要事項" style="rounded=0;whiteSpace=wrap;html=1;" vertex="1" parent="1">
          <mxGeometry x="310" y="210" width="100" height="50" as="geometry" />
        </mxCell>
        <mxCell id="1aU4UUseu54FOc3RbMY6-43" value="" style="endArrow=diamondThin;html=1;rounded=0;entryX=0.5;entryY=1;entryDx=0;entryDy=0;exitX=0.5;exitY=0;exitDx=0;exitDy=0;endSize=20;endFill=0;" edge="1" parent="1" source="1aU4UUseu54FOc3RbMY6-42" target="1aU4UUseu54FOc3RbMY6-18">
          <mxGeometry width="50" height="50" relative="1" as="geometry">
            <mxPoint x="330" y="180" as="sourcePoint" />
            <mxPoint x="310" y="120" as="targetPoint" />
          </mxGeometry>
        </mxCell>
        <mxCell id="1aU4UUseu54FOc3RbMY6-44" value="貸し出し中か" style="rounded=0;whiteSpace=wrap;html=1;" vertex="1" parent="1">
          <mxGeometry x="1180" y="190" width="100" height="50" as="geometry" />
        </mxCell>
        <mxCell id="1aU4UUseu54FOc3RbMY6-45" value="棚の位置" style="rounded=0;whiteSpace=wrap;html=1;" vertex="1" parent="1">
          <mxGeometry x="1290" y="190" width="100" height="50" as="geometry" />
        </mxCell>
        <mxCell id="1aU4UUseu54FOc3RbMY6-46" value="" style="endArrow=diamondThin;html=1;rounded=0;entryX=1;entryY=1;entryDx=0;entryDy=0;exitX=0.5;exitY=0;exitDx=0;exitDy=0;endSize=20;endFill=0;" edge="1" parent="1" source="1aU4UUseu54FOc3RbMY6-45" target="1aU4UUseu54FOc3RbMY6-34">
          <mxGeometry width="50" height="50" relative="1" as="geometry">
            <mxPoint x="1185" y="230" as="sourcePoint" />
            <mxPoint x="1150" y="170" as="targetPoint" />
          </mxGeometry>
        </mxCell>
        <mxCell id="1aU4UUseu54FOc3RbMY6-47" value="" style="endArrow=diamondThin;html=1;rounded=0;entryX=0.75;entryY=1;entryDx=0;entryDy=0;exitX=0.5;exitY=0;exitDx=0;exitDy=0;endSize=20;endFill=0;" edge="1" parent="1" source="1aU4UUseu54FOc3RbMY6-44" target="1aU4UUseu54FOc3RbMY6-34">
          <mxGeometry width="50" height="50" relative="1" as="geometry">
            <mxPoint x="1185" y="230" as="sourcePoint" />
            <mxPoint x="1150" y="170" as="targetPoint" />
          </mxGeometry>
        </mxCell>
        <mxCell id="1aU4UUseu54FOc3RbMY6-49" value="" style="endArrow=diamondThin;html=1;rounded=0;entryX=1;entryY=0.25;entryDx=0;entryDy=0;exitX=0;exitY=0.5;exitDx=0;exitDy=0;endSize=20;endFill=0;" edge="1" parent="1" source="1aU4UUseu54FOc3RbMY6-19" target="1aU4UUseu54FOc3RbMY6-1">
          <mxGeometry width="50" height="50" relative="1" as="geometry">
            <mxPoint x="940" y="425" as="sourcePoint" />
            <mxPoint x="710" y="280" as="targetPoint" />
          </mxGeometry>
        </mxCell>
        <mxCell id="1aU4UUseu54FOc3RbMY6-51" value="" style="endArrow=blockThin;html=1;rounded=0;entryX=0.5;entryY=1;entryDx=0;entryDy=0;exitX=0.5;exitY=0;exitDx=0;exitDy=0;endSize=20;endFill=0;" edge="1" parent="1" source="1aU4UUseu54FOc3RbMY6-19" target="1aU4UUseu54FOc3RbMY6-34">
          <mxGeometry width="50" height="50" relative="1" as="geometry">
            <mxPoint x="1060" y="210" as="sourcePoint" />
            <mxPoint x="1100" y="150" as="targetPoint" />
          </mxGeometry>
        </mxCell>
      </root>
    </mxGraphModel>
  </diagram>
</mxfile>
